<svg xmlns="http://www.w3.org/2000/svg" width="98" height="39"><path d="M12.883 18.639h-1.919c-3.015 0-5.939-2.192-5.939-7.675 0-5.71 2.741-8.04 5.527-8.04h2.33v15.715zm3.015-18.639h-5.208c-5.118 0-9.456 3.884-9.456 11.421 0 4.522 2.101 7.857 5.848 9.501l-6.99 12.609c-.229.411 0 .731.365.731h3.244c.274 0 .458-.091.549-.32l6.35-12.38h2.284v12.38c0 .138.138.32.32.32h2.833c.274 0 .365-.138.365-.365v-33.441c0-.319-.182-.456-.503-.456" fill="#ed1e24"/><path d="M33.069 11.357h-2.833c-.229 0-.365.182-.365.32v8.725h-5.254v-8.725c0-.229-.091-.32-.32-.32h-2.833c-.227 0-.365.138-.365.32v22.203c0 .227.091.365.319.365h2.879c.182 0 .32-.138.32-.365v-10.599h5.254v10.599c0 .227.136.365.365.365h2.833c.229 0 .32-.184.32-.365v-22.203c0-.183-.138-.32-.32-.32M97.739 32.782l-.365-1.552c-.046-.138-.091-.184-.229-.184-.229 0-1.461.503-3.244.503-3.471 0-5.162-3.335-5.162-8.634 0-4.66 1.416-9.274 3.792-9.274.639 0 1.416.182 2.649 1.325.138.138.229.182.366.182.138 0 .274-.091.411-.32l1.234-2.01c.091-.136.136-.274.136-.411 0-.182-.182-.319-.456-.456-1.874-.96-3.152-1.143-4.249-1.143-4.294 0-7.629 5.116-7.629 13.111 0 6.897 3.197 10.873 7.766 10.873 1.919 0 3.974-.914 4.796-1.507.182-.138.229-.32.182-.503M77.884 21.681l5.482-10.005c.091-.136.045-.32-.138-.32h-2.695c-.777 0-1.051.275-1.325.869l-4.111 8.543c-.229.502-.458.822-.686.96v-10.051c0-.182-.091-.32-.274-.32h-2.97c-.136 0-.274.138-.274.32v22.247c0 .138.091.32.274.32h2.97c.182 0 .274-.138.274-.32v-11.466c.138.091.229.229.32.411l5.208 10.69c.275.547.686.685 1.28.685h2.924c.182 0 .229-.182.136-.32l-6.395-12.242M46.774 31.366h-6.624c2.33-3.974 3.244-8.451 3.564-13.934.091-1.188.136-2.42.136-3.197h2.924v17.131zm4.934 0h-.548c-.686 0-.869-.274-.869-.823v-18.866c0-.229-.091-.32-.274-.32h-9.136c-.229 0-.366.136-.366.32v1.644c0 5.527-.319 12.655-3.242 18.045h-1.006c-.274 0-.365.138-.365.365v6.67c0 .229.182.32.32.32h2.192c.503 0 .685-.365.685-.685v-3.792h9.776v4.157c0 .182.138.32.32.32h2.33c.274 0 .549-.229.549-.685v-6.305c0-.228-.137-.365-.366-.365M60.524 20.722c-1.05 0-2.695.182-2.695.182s0-.685.091-1.416c.411-3.882 1.37-5.848 2.97-5.848 1.461 0 2.375 2.01 2.604 5.529.045.73.045 1.552.045 1.552h-3.015zm.503-9.912c-4.934 0-7.126 6.212-7.126 12.974 0 6.897 3.106 11.009 7.675 11.009 2.237 0 4.203-.867 5.208-1.507.182-.091.229-.227.182-.411l-.365-1.552c-.046-.182-.138-.274-.366-.274-.182 0-1.507.503-3.38.503-3.518 0-5.162-3.061-5.162-7.081v-1.081s1.782.214 2.833.214h6.67v-1.919c0-7.081-2.512-10.873-6.168-10.873" fill="#231f20"/></svg>
