<?xml version="1.0" encoding="utf-8"?>
<!-- Generator: Adobe Illustrator 25.0.1, SVG Export Plug-In . SVG Version: 6.00 Build 0)  -->
<svg version="1.1" id="Yandex_logtype" xmlns="http://www.w3.org/2000/svg" xmlns:xlink="http://www.w3.org/1999/xlink" x="0px"
	 y="0px" viewBox="0 0 378 91" style="enable-background:new 0 0 378 91;" xml:space="preserve">
<style type="text/css">
	.st0{fill:#FC3F1D;}
</style>
<path id="Name" d="M218.2,90.9c7.2,0,13.1-3.4,17.3-9.7l0.8,8.4h14.2V0h-15.3v32.4c-3.8-5.8-9.6-8.9-16.3-8.9
	c-14.8,0-25.2,12.5-25.2,34.2C193.7,79,203.8,90.9,218.2,90.9z M312.6,85.3V72.8c-4.8,3.2-12.8,6.1-20.3,6.1
	c-11.2,0-15.5-5.3-16.1-16.1h37v-8.2c0-22.6-9.9-31.1-25.3-31.1c-18.7,0-27.6,14.3-27.6,33.9c0,22.6,11.1,33.5,30.7,33.5
	C300.8,90.9,308,88.4,312.6,85.3z M147.3,43.1c2.9-3.5,7.3-6.4,12.9-6.4c5.4,0,7.8,2.3,7.8,7.2v45.8h15.3V42.3
	c0-12.9-5.1-18.6-17.7-18.6c-9.1,0-14.6,3.4-17.7,6.4h-0.8l-0.4-5.4h-15v64.9h15.3L147.3,43.1L147.3,43.1z M119.4,45.4
	c0-15.7-8-21.7-24.3-21.7c-10.1,0-18.2,4.3-22.8,7.6v13.3c4.9-4,12.4-8.6,21-8.6c7.3,0,10.7,2.6,10.7,9.6v4.1h-2.4
	c-23.5,0-33.9,7.6-33.9,21.2c0,12.5,8,19.7,19.9,19.7c9,0,12.9-3,15.9-6.1h0.6c0.1,1.7,0.6,3.8,1.1,5.1h15
	c-0.5-5.3-0.8-10.6-0.8-15.9L119.4,45.4L119.4,45.4z M359.7,89.7h17.3l-21.2-33.4l18.3-31.4h-15.3l-11.1,19.6l-12.4-19.6h-17.4
	l19.6,31.1l-20.4,33.8h15.6l13-21.9L359.7,89.7z M222.8,35.6c8.3,0,12.4,6.6,12.4,21.5c0,15.1-4.4,21.7-13,21.7
	c-8.4,0-12.5-6.4-12.5-21.2C209.6,42.3,214,35.6,222.8,35.6z M287.7,35.6c7.6,0,9.9,6.3,9.9,14.4v1.3h-21.4
	C276.5,41,280.3,35.6,287.7,35.6z M104.1,74.2c-1.9,2.9-5.6,5.1-11,5.1c-6.4,0-9.7-3.7-9.7-9.4c0-7.5,5.3-10.1,18.4-10.1h2.2V74.2z"
	/>
<path id="Glyph" class="st0" d="M45,74.4v15.2H29.4V64L0,0h16.3l22.9,50C43.6,59.6,45,62.9,45,74.4z M74.3,0L55.2,43.3H39.3L58.5,0
	H74.3z"/>
</svg>
