<svg width="98" height="42" xmlns="http://www.w3.org/2000/svg"><path d="M51.88 32.898h-1.81V13.02H39.5v1.943c0 6.053-.227 13.1-2.305 17.935h-1.4v7.092h3.162v-4.2h9.757v4.2h3.162v-7.092zm14.32-1.353c-.903.632-2.484 1.536-4.472 1.536-2.8 0-4.246-2.71-4.246-7.86h9.487v-1.94c0-7.72-2.49-10.57-6.28-10.57-4.84 0-6.87 5.33-6.87 12.65 0 7 2.89 10.75 7.59 10.75 2.26 0 4.15-.72 5.6-1.85l-.82-2.71zM29.96 13.023v9.133h-5.454v-9.133h-3.668v22.964h3.668v-10.89h5.454v10.89h3.62V13.023h-3.62zM80.12 35.98h3.84L77.5 23.918l5.8-10.892h-3.57l-5.62 10.71v-10.71h-3.525V35.98h3.524V24.64l6 11.34zm16.843-1.545l-.812-2.62c-.81.722-2.12 1.4-3.84 1.4-2.84 0-4.2-3.253-4.2-8.945 0-5.738 1.84-8.733 4.37-8.733 1.45 0 2.8.768 3.75 1.58l.5-3.342c-.99-.632-2.17-1.174-4.2-1.174-5.33 0-8.11 4.72-8.11 11.85 0 7.77 2.94 11.71 7.82 11.71 2.08 0 3.53-.68 4.75-1.71zm-50.576-1.3H40.74c.06-.154.12-.31.177-.47 1.734-4.81 1.946-11.52 1.946-16.154v-.4h3.524v17.03zm16.92-10.745h-5.83c.227-4.067.995-6.732 3.164-6.732 2.04 0 2.67 2.846 2.67 6.73z" fill="#000"/><path d="M13.314 23.65v12.378h3.48V3.978h-5.197C6.492 3.98 2.2 7.53 2.2 13.892c0 4.835 1.898 7.455 4.744 8.9L.89 36.03h4.02l5.513-12.38h2.89zm0-2.892h-1.852c-3.027 0-5.512-1.672-5.512-6.867 0-4.84 2.2-6.29 4.684-6.61.273-.03.55-.05.828-.05h1.852v13.53z" fill="#F00"/></svg>
