<svg xmlns="http://www.w3.org/2000/svg" width="130" height="51"><path d="M57.21 19.421c-2.975 0-6.076 2.173-6.076 2.173v-1.397c0-.306-.122-.429-.428-.429h-3.797c-.306 0-.49.184-.49.429v29.783c0 .307.123.491.429.491h3.858c.244 0 .428-.184.428-.491v-25.494s1.791-1.135 3.965-1.135c2.071 0 3.705 1.028 3.705 3.138v23.491c0 .307.184.491.49.491h3.796c.306 0 .428-.245.428-.491v-24.826c0-3.739-2.297-5.733-6.309-5.733zM86.745 4.482h-3.797c-.306 0-.49.184-.49.429v15.025c-1.457-.56-2.785-.856-3.857-.856-6.166 0-10.4 5.899-10.4 17.243 0 9.719 4.118 14.93 9.493 14.93 2.265 0 4.135-1.299 5.504-2.518l.829 1.406c.14.243.254.327.535.327l2.183.003c.245 0 .429-.184.429-.491v-45.069c0-.307-.122-.429-.428-.429zm-13.523 30.839c0-6.251 1.828-12.44 5.561-12.44 1.264 0 2.479.416 3.675 1.367v22.022c-.935.509-2.112.979-3.383.979-4.059 0-5.853-4.819-5.853-11.927zM101.289 19.142c-6.323 0-9.444 8.278-9.444 17.287 0 9.429 4.451 14.714 10.174 14.714 2.516 0 5.02-.991 6.662-1.904.252-.14.297-.338.237-.581l-.48-1.992c-.06-.244-.182-.365-.486-.365-.134 0-2.208.607-4.226.607-4.684 0-6.831-4.166-6.831-9.7v-1.345s2.328.322 3.727.322h8.836v-2.556c0-9.435-3.301-14.487-8.166-14.487zm-.304 13.208c-1.399 0-3.944.346-3.944.346s.034-1.015.156-1.989c.547-5.174 1.78-7.79 3.909-7.79 1.851 0 3.118 2.678 3.423 7.365.06.974.06 2.07.06 2.07h-3.605zM39.207 23.011c-1.404-2.768-3.905-3.978-6.77-3.978-1.841 0-4.712.704-6.631 1.567-.375.169-.613.317-.613.613 0 .176.087.378.184.552l1.292 2.769c.134.313.347.384.523.384.191 0 .347-.091.518-.201 1.871-1.197 3.242-1.854 4.327-1.854 1.435 0 2.41.953 3.011 2.386.56 1.335.777 3.18.777 5.312l.001.627c-1.179-.738-3.222-1.145-4.241-1.145-5.486 0-8.444 5.216-8.444 10.794 0 6.01 3.458 10.418 7.613 10.418 2.314 0 4.409-1.359 5.812-3.073 0 0 .747 1.782.844 1.996.098.213.202.292.483.292l2.22.003c.244 0 .428-.184.428-.491v-17.277c-.001-4.245-.215-7.484-1.335-9.693zm-3.38 22.635c-1.088 1.051-2.391 1.602-3.563 1.602-1.172 0-2.078-.542-2.804-1.545-.884-1.221-1.297-3.102-1.297-5.185 0-3.295 1.216-6.676 3.792-6.676 1.275 0 2.676.415 3.872 1.367v10.437zM129.508 19.764h-3.384c-.378 0-.571.198-.668.455-.214.563-1.645 4.333-2.231 5.895-.418 1.116-1.544 4.311-1.544 4.311l-.131-.001c-.004-.011-.829-2.324-1.275-3.482-.361-.939-2.247-5.909-2.485-6.522-.127-.329-.27-.655-.754-.655h-3.705c-.407 0-.638.447-.506.724.132.278 6.035 13.735 6.035 13.735s-6.34 15.068-6.525 15.406c-.185.339.048.839.499.839h3.247c.552 0 .77-.29.936-.757.467-1.308 1.162-3.128 2.146-5.94.652-1.864 1.683-5.134 1.683-5.134h.113s1.129 3.333 1.549 4.423c1.061 2.756 2.418 6.356 2.562 6.736.15.398.36.671.739.671h3.682c.364 0 .533-.416.362-.779-.41-.864-3.907-9.367-6.335-14.957 0 0 6.302-13.917 6.425-14.261.123-.344.086-.708-.434-.708z" fill="#010202"/><path d="M26.976 0h-4.268c-.378 0-.614.186-.669.455-.054.27-6.401 19.638-6.862 21.251-.327 1.144-1.394 5.176-1.649 6.144l-2.207-6.031c-.536-1.66-5.677-16.033-5.828-16.607-.083-.316-.228-.708-.781-.708h-4.167c-.407 0-.638.447-.506.725.105.222 7.632 20.263 10.673 27.919v16.833c0 .307.123.491.429.491h3.947c.245 0 .428-.184.428-.491v-16.7c2.535-7.085 11.795-32.289 11.895-32.571.123-.345.087-.708-.433-.708z" fill="#e52620"/></svg>
